<?xml version="1.0" encoding="UTF-8" standalone="no"?>
<svg
   viewBox="0 0 320 320.14999"
   version="1.1"
   id="svg4270"
   sodipodi:docname="close.svg"
   width="320"
   height="320.14999"
   inkscape:version="1.2.1 (9c6d41e410, 2022-07-14)"
   xmlns:inkscape="http://www.inkscape.org/namespaces/inkscape"
   xmlns:sodipodi="http://sodipodi.sourceforge.net/DTD/sodipodi-0.dtd"
   xmlns="http://www.w3.org/2000/svg"
   xmlns:svg="http://www.w3.org/2000/svg">
  <defs
     id="defs4274" />
  <sodipodi:namedview
     id="namedview4272"
     pagecolor="#ffffff"
     bordercolor="#000000"
     borderopacity="0.25"
     inkscape:showpageshadow="2"
     inkscape:pageopacity="0.0"
     inkscape:pagecheckerboard="0"
     inkscape:deskcolor="#d1d1d1"
     showgrid="false"
     inkscape:zoom="0.57797693"
     inkscape:cx="486.17857"
     inkscape:cy="19.031901"
     inkscape:window-width="1920"
     inkscape:window-height="1017"
     inkscape:window-x="-8"
     inkscape:window-y="-8"
     inkscape:window-maximized="1"
     inkscape:current-layer="svg4270" />
  <!--! Font Awesome Pro 6.2.1 by @fontawesome - https://fontawesome.com License - https://fontawesome.com/license (Commercial License) Copyright 2022 Fonticons, Inc. -->
  <path
     d="m 310.6,54.674997 c 12.5,-12.5 12.5,-32.8 0,-45.3000001 -12.5,-12.5 -32.8,-12.5 -45.3,0 L 160,114.775 54.6,9.4749969 c -12.5,-12.5 -32.8,-12.5 -45.3,0 C -3.2,21.974997 -3.2,42.274997 9.3,54.774997 L 114.7,160.075 9.4,265.475 c -12.5,12.5 -12.5,32.8 0,45.3 12.5,12.5 32.8,12.5 45.3,0 l 105.3,-105.4 105.4,105.3 c 12.5,12.5 32.8,12.5 45.3,0 12.5,-12.5 12.5,-32.8 0,-45.3 l -105.4,-105.3 z"
     id="path4268"
     style="fill:#ffffff" />
</svg>
